<svg id="Layer_1" data-name="Layer 1" xmlns="http://www.w3.org/2000/svg" viewBox="0 0 815.0447 644.18303"><defs><style>.cls-1,.cls-2,.cls-3{fill-rule:evenodd;}.cls-2{fill:#ed1c24;}.cls-3{fill:#fff;}</style></defs><title>logo-maiden-city-plain</title><path class="cls-1" d="M156.334,462.05181s-84.5991-146-12.2808-301.55081l10.9156-6.82329S391.02589-3.23828,767.624,33.603l-1.36422,8.187s-40.9346,118.711-51.8506,140.542l19.1025,1.36481s125.5332,17.7378,125.5332,133.72019c0,115.98051-96.87888,148.72851-151.458,148.72851l-10.916-1.3643s-30.0186-2.7294-45.0283-15.0097l-12.2803,5.458s-76.4111,32.748-162.374,65.4951l-6.82229,10.916S332.353,657.1738,295.51219,672.1836l-10.916-13.6455s-39.5713-38.2051-49.1221-61.4014l-9.5512,2.7285S62.1841,646.2578,45.8101,591.6787C29.436,537.0986,129.0439,475.69731,148.147,466.14551Z" transform="translate(-44.00018 -28.00057)"/><path class="cls-2" d="M167.2495,204.16411s-1.3642-27.29011,125.5327-72.3179c126.8985-45.0278,226.50489-68.2241,420.26269-65.4951l-9.5517,32.747s-279.71979-13.644-517.14069,106.4302l-12.2802,8.187-4.0938,2.729Z" transform="translate(-44.00018 -28.00057)"/><path class="cls-2" d="M164.5205,371.99611s141.9072-75.0469,413.4385-73.68311v10.916S403.30659,445.67771,220.46439,502.9863l-9.5508-9.5508s-31.3833-51.8505-45.0283-107.7949Z" transform="translate(-44.00018 -28.00057)"/><path class="cls-3" d="M208.18459,352.89261s24.561,98.2431,60.0371,133.7197l-23.1963,8.1875-24.5606,8.1865s-31.3833-25.9248-58.6733-130.9892l10.916-5.458Z" transform="translate(-44.00018 -28.00057)"/><path class="cls-3" d="M306.42769,126.38821s-103.7011,31.3833-137.813,73.6821l-2.729,5.458,2.729,10.916s16.3731-8.187,36.8409-24.561l5.457-9.55131s-1.3638-8.187,72.3188-43.664Z" transform="translate(-44.00018 -28.00057)"/><path class="cls-3" d="M276.40869,588.9492s12.2798,13.6445,21.832,23.1963l12.2798-10.916s21.832-10.916,49.1221-40.9346l-25.9248,12.2803s-39.5713,13.6445-50.4864,13.6445Z" transform="translate(-44.00018 -28.00057)"/><path class="cls-3" d="M133.1372,539.8281s84.5991,55.9434,454.37449-154.1875l-5.457-12.2802a199.536,199.536,0,0,1-5.459-35.4761l-5.459,10.9155S326.895,517.9961,165.8853,538.4629l-16.3741-1.3643Z" transform="translate(-44.00018 -28.00057)"/><path class="cls-3" d="M764.43748,217.293l-7.72948.51611-10.915,16.374,4.09268,8.187-1.3642,4.0928-9.5518-10.916-42.2988,2.7295c-17.7383,10.9155-17.7383,20.4677-17.7383,20.4677l-5.458,5.458c5.458-20.4677,15.0098-28.6552,15.0098-28.6552l-13.6455-20.4668.0566-.961a118.75963,118.75963,0,0,0-7.7021,219.83109l13.1035-19.6553s-9.5508-8.1875-15.0088-28.6543l5.458,5.459s0,9.5498,17.7383,20.4658l42.2988,2.7295,9.55182-10.916,1.36418,4.0938-4.0937,8.1865,10.916,16.374,17.4736,1.165a118.76007,118.76007,0,0,0-1.5576-215.90521M751.25,389.73441l15.00978-24.5615s-21.8321-25.92491-28.6543-35.4756h-6.8223l1.3643-4.09431,9.5517-1.36369,25.92482-36.8414-10.916-25.9248,5.458,1.3638,10.916,21.832s21.83208,6.8223,39.57028,20.4673l-1.3642,8.187s-1.3643,13.6451,1.3642,34.1123l-9.5517,10.9161a98.62991,98.62991,0,0,1-30.01858,9.5507l-15.00882,20.4668Zm-130.99022-47.7573,1.36422-45.0279,36.84078-16.374,6.8233,2.729s10.916,25.92479,21.831,38.2061l15.0098,1.36369v4.09431l-16.374,1.36369s-21.832,24.56161-24.5596,32.74811l-5.459,8.1875-5.457-6.8233s-15.0107-13.6445-30.0195-20.4672" transform="translate(-44.00018 -28.00057)"/><path class="cls-3" d="M168.6143,354.25681,167.2495,328.333l10.916-2.729V249.19191l-10.916,1.3647,1.3648-23.1958s30.019-13.646,45.0278-15.0102l20.4683,70.9531,20.4667-85.9629s34.1124-15.00881,51.8501-19.102v25.9253l-9.5507,5.458-6.8233,81.8686h10.916V309.23s-23.1958,6.82181-47.7568,15.00881l1.3647-19.1031,10.9151-6.82171V250.55661l-25.9248,79.1402-15.0093,4.09419-20.4668-58.67429-2.729,43.6641,9.5508-1.36381,2.729,20.46681s-24.561,8.1875-45.0278,16.373" transform="translate(-44.00018 -28.00057)"/><path class="cls-3" d="M457.88569,140.03271a227.692,227.692,0,0,0-62.767,13.645c-25.9249,9.5508-23.1958,23.1958-27.2891,35.4771l-17.7378,83.2329s-9.5522,27.291,19.102,23.19729l13.6451-1.36529s34.1118-4.09271,43.664-5.458l12.2798-8.187s12.2808-19.102,13.645-42.2978l-25.9248,2.729-5.458,2.728-1.3652,6.8227-5.458,19.1021-35.4761,4.0942,21.8311-95.5141s25.9262-8.187,35.477-6.82281l2.729,4.09381v10.916l31.38331-5.458,4.09279-28.6543s0-13.6446-16.3731-12.2808" transform="translate(-44.00018 -28.00057)"/><path class="cls-3" d="M505.64259,235.54741h34.1123l-2.7295,16.374,30.0195,1.3638s6.8223,1.3652,9.5508-8.1866l10.916-23.1963s4.0938-6.8217-10.916-6.8217l-40.9346,1.3637s-23.1963,4.0933-10.915-27.29l23.1953-50.4858s9.5518-23.1958,43.6641-25.9253c34.1123-2.7286,61.4013-1.3648,70.9531,0l4.0937,5.458s4.0938,4.0932-1.3632,17.7383l-17.7393,24.561h-34.1123l4.0928-8.187s8.1875-8.187-9.5508-8.187l-23.1963,1.3637-19.1035,36.8423,43.6641-1.3652s38.206-6.8218,23.19622,25.9263l-10.916,20.4668-13.64452,30.019s-6.8232,20.4668-34.1123,20.4668c-27.2901,0-53.2158,4.0942-69.5889,1.3652l-4.0937-6.8232s-8.18659,0,5.458-36.8408" transform="translate(-44.00018 -28.00057)"/></svg>